# xmcd CD database file
#
# Track frame offsets:
#	150
#	21086
#	36080
#	57135
#	78918
#	105918
#	125889
#	143607
#	163153
#	181940
#	200926
#	220762
#	240190
#	266908
#
# Disc length: 3804 seconds
#
# Revision: 26
# Processed by: cddbd v1.5.1PL2 Copyright (c) Steve Scherf et al.
# Submitted via: CDex 1.60beta1
#
DISCID=bf0eda0e
DTITLE=B'z - B'z The Best "Pleasure"
DYEAR=1998
DGENRE=JRock
TTITLE0=LOVE PHANTOM
TTITLE1=love me, I love you
TTITLE2=Easy Come, Easy Go!
TTITLE3=ZERO
TTITLE4=ALONE
TTITLE5=裸足の女神
TTITLE6=愛のままにわがままに僕は君だけを傷つけない
TTITLE7=LADY NAVIGATION
TTITLE8=太陽のKomachi Angel
TTITLE9=BE THERE
TTITLE10=Don't Leave Me
TTITLE11=Bad Communication E.Style
TTITLE12=Calling
TTITLE13=さまよえる蒼い弾丸
EXTD=YEAR: 1998
EXTT0=
EXTT1=
EXTT2=
EXTT3=
EXTT4=
EXTT5=
EXTT6=
EXTT7=
EXTT8=
EXTT9=
EXTT10=
EXTT11=
EXTT12=
EXTT13=
PLAYORDER=
